External Loads File
version=1
nRows=87
nColumns=13
Range=5.000000e-03-10 seconds
endheader
time 	forceRightX 	forceRightY 	forceRightZ 	pointRightX 	pointRightY 	pointRightZ 	forceLeftX 	forceLeftY 	forceLeftZ 	pointLeftX 	pointLeftY 	pointLeftZ 		
2.505000 22.544314 77.584626 -0.000000 0.354223 0.393793 -0.162005 1.191393 97.763141 -0.000000 0.055746 0.257856 -0.398294
2.510000 22.710660 77.746395 -0.000000 0.354170 0.393909 -0.162009 1.144843 97.862278 -0.000000 0.055763 0.257772 -0.398263
2.515000 22.763087 77.831508 -0.000000 0.354142 0.393987 -0.162022 1.156078 97.912114 -0.000000 0.055792 0.257663 -0.398260
2.520000 22.707871 77.828493 -0.000000 0.354118 0.394040 -0.162018 1.152908 97.870095 -0.000000 0.055814 0.257610 -0.398250
2.525000 22.506143 77.737682 -0.000000 0.354109 0.394127 -0.162021 1.094837 97.741315 -0.000000 0.055823 0.257514 -0.398236
2.530000 22.187945 77.552677 -0.000000 0.354089 0.394208 -0.162022 1.070002 97.563793 -0.000000 0.055843 0.257437 -0.398244
2.535000 21.804456 77.285589 -0.000000 0.354090 0.394285 -0.162022 1.152502 97.383575 -0.000000 0.055855 0.257382 -0.398216
2.540000 21.408146 76.966482 -0.000000 0.354091 0.394364 -0.162017 1.353786 97.240605 -0.000000 0.055875 0.257309 -0.398215
2.545000 21.069150 76.621530 -0.000000 0.354094 0.394442 -0.162010 1.665976 97.155470 -0.000000 0.055892 0.257237 -0.398225
2.550000 20.827104 76.281797 -0.000000 0.354090 0.394539 -0.162016 2.010962 97.112950 -0.000000 0.055909 0.257166 -0.398223
2.555000 20.707080 75.974852 -0.000000 0.354081 0.394621 -0.162014 2.276238 97.061099 -0.000000 0.055939 0.257087 -0.398232
2.560000 20.688851 75.716120 -0.000000 0.354072 0.394719 -0.162023 2.338907 96.942347 -0.000000 0.055970 0.256996 -0.398228
2.565000 20.741090 75.501047 -0.000000 0.354054 0.394822 -0.162028 2.166671 96.736150 -0.000000 0.056005 0.256910 -0.398239
2.570000 20.839596 75.324748 -0.000000 0.354024 0.394912 -0.162024 1.834907 96.479167 -0.000000 0.056036 0.256792 -0.398270
2.575000 20.986517 75.185289 -0.000000 0.353986 0.395029 -0.162026 1.488932 96.237780 -0.000000 0.056088 0.256685 -0.398266
2.580000 21.191123 75.077142 -0.000000 0.353947 0.395162 -0.162033 1.235248 96.054994 -0.000000 0.056126 0.256589 -0.398273
2.585000 21.452255 74.989340 -0.000000 0.353902 0.395259 -0.162044 1.086316 95.926349 -0.000000 0.056164 0.256507 -0.398274
2.590000 21.727345 74.918449 -0.000000 0.353859 0.395362 -0.162062 0.976579 95.825093 -0.000000 0.056202 0.256393 -0.398270
2.595000 21.983396 74.861458 -0.000000 0.353807 0.395473 -0.162053 0.888535 95.737715 -0.000000 0.056243 0.256218 -0.398238
2.600000 22.234387 74.809151 -0.000000 0.353756 0.395591 -0.162080 0.893672 95.672399 -0.000000 0.056294 0.256127 -0.398240
2.605000 22.449195 74.770289 -0.000000 0.353697 0.395708 -0.162086 0.998901 95.644976 -0.000000 0.056343 0.256013 -0.398241
2.610000 22.628745 74.745081 -0.000000 0.353628 0.395826 -0.162082 1.224406 95.663646 -0.000000 0.056396 0.255912 -0.398243
2.615000 22.776758 74.735253 -0.000000 0.353558 0.395935 -0.162077 1.555128 95.724632 -0.000000 0.056459 0.255825 -0.398238
2.620000 22.884563 74.743136 -0.000000 0.353495 0.396048 -0.162067 1.924111 95.811598 -0.000000 0.056515 0.255709 -0.398237
2.625000 22.935148 74.759617 -0.000000 0.353437 0.396177 -0.162070 2.234027 95.893132 -0.000000 0.056558 0.255565 -0.398231
2.630000 22.919808 74.767489 -0.000000 0.353393 0.396299 -0.162066 2.391607 95.926732 -0.000000 0.056613 0.255426 -0.398221
2.635000 22.845100 74.761111 -0.000000 0.353353 0.396439 -0.162058 2.342555 95.884840 -0.000000 0.056657 0.255284 -0.398226
2.640000 22.771015 74.739453 -0.000000 0.353325 0.396561 -0.162080 2.163680 95.780605 -0.000000 0.056714 0.255122 -0.398237
2.645000 22.752572 74.706801 -0.000000 0.353293 0.396762 -0.162094 1.985586 95.655801 -0.000000 0.056754 0.254978 -0.398231
2.650000 22.842133 74.650207 -0.000000 0.353262 0.396924 -0.162094 1.933581 95.534014 -0.000000 0.056775 0.254823 -0.398240
2.655000 23.001305 74.557778 -0.000000 0.353231 0.397094 -0.162091 1.975064 95.398210 -0.000000 0.056817 0.254652 -0.398234
2.660000 23.182416 74.404938 -0.000000 0.353197 0.397280 -0.162114 2.048558 95.212826 -0.000000 0.056859 0.254527 -0.398233
2.665000 23.311498 74.178829 -0.000000 0.353164 0.397452 -0.162115 2.091185 94.964848 -0.000000 0.056913 0.254357 -0.398226
2.670000 23.361660 73.873084 -0.000000 0.353116 0.397632 -0.162095 2.143122 94.677098 -0.000000 0.056940 0.254187 -0.398239
2.675000 23.335144 73.505144 -0.000000 0.353071 0.397811 -0.162114 2.275560 94.394427 -0.000000 0.057010 0.253992 -0.398236
2.680000 23.291222 73.100203 -0.000000 0.353021 0.398015 -0.162122 2.578751 94.157596 -0.000000 0.057068 0.253824 -0.398220
2.685000 23.288367 72.681366 -0.000000 0.352978 0.398192 -0.162133 3.094563 93.982791 -0.000000 0.057128 0.253634 -0.398230
2.690000 23.360874 72.257260 -0.000000 0.352915 0.398381 -0.162132 3.807142 93.850697 -0.000000 0.057198 0.253457 -0.398220
2.695000 23.495070 71.837217 -0.000000 0.352832 0.398612 -0.162140 4.605812 93.712701 -0.000000 0.057273 0.253178 -0.398232
2.700000 23.723455 71.407303 -0.000000 0.352765 0.398884 -0.162139 5.429026 93.509872 -0.000000 0.057342 0.252960 -0.398228
2.705000 24.005698 70.959320 -0.000000 0.352694 0.399145 -0.162130 6.194157 93.220446 -0.000000 0.057406 0.252702 -0.398241
2.710000 24.299102 70.474050 -0.000000 0.352625 0.399440 -0.162113 6.942534 92.885804 -0.000000 0.057480 0.252430 -0.398264
2.715000 24.585946 69.936475 -0.000000 0.352528 0.399708 -0.162117 7.813902 92.587962 -0.000000 0.057582 0.252135 -0.398299
2.720000 24.839516 69.355709 -0.000000 0.352425 0.400014 -0.162137 8.875284 92.392741 -0.000000 0.057713 0.251809 -0.398320
2.725000 25.076519 68.736789 -0.000000 0.352317 0.400282 -0.162165 10.101095 92.299133 -0.000000 0.057857 0.251523 -0.398341
2.730000 25.248937 68.119066 -0.000000 0.352192 0.400581 -0.162193 11.243665 92.271948 -0.000000 0.058025 0.251177 -0.398362
2.735000 25.364572 67.548964 -0.000000 0.352055 0.400950 -0.162199 12.097060 92.295056 -0.000000 0.058214 0.250848 -0.398394
2.740000 25.441918 67.108068 -0.000000 0.351919 0.401303 -0.162177 12.527135 92.427416 -0.000000 0.058447 0.250470 -0.398407
2.745000 25.503922 66.903538 -0.000000 0.351783 0.401672 -0.162197 12.481673 92.795987 -0.000000 0.058715 0.250080 -0.398436
2.750000 25.574122 67.046673 -0.000000 0.351620 0.402051 -0.162213 11.966507 93.557868 -0.000000 0.059010 0.249720 -0.398463
2.755000 25.671214 67.646422 -0.000000 0.351432 0.402334 -0.162217 11.022435 94.870024 -0.000000 0.059292 0.249367 -0.398469
2.760000 25.743250 68.837835 -0.000000 0.351244 0.402633 -0.162198 9.640453 96.876757 -0.000000 0.059582 0.249040 -0.398470
2.765000 25.746882 70.752465 -0.000000 0.351033 0.402779 -0.162145 7.899898 99.673908 -0.000000 0.059853 0.248789 -0.398485
2.770000 25.570298 73.544195 -0.000000 0.350832 0.402777 -0.162059 5.883204 103.298162 -0.000000 0.060064 0.248695 -0.398516
2.775000 25.050688 77.381942 -0.000000 0.350660 0.402558 -0.161921 3.716340 107.692650 -0.000000 0.060188 0.248768 -0.398491
2.780000 23.992928 82.443826 -0.000000 0.350582 0.401989 -0.161782 1.647092 112.682977 -0.000000 0.060205 0.249116 -0.398516
2.785000 22.051701 88.956048 -0.000000 0.350636 0.401119 -0.161621 -0.011193 117.988647 -0.000000 0.060034 0.249828 -0.398407
2.790000 18.797469 97.194613 -0.000000 0.350919 0.399768 -0.161465 -0.727671 123.242062 -0.000000 0.059671 0.250910 -0.398374
2.795000 13.747073 107.526932 -0.000000 0.351451 0.398012 -0.161340 0.176647 127.986352 -0.000000 0.059047 0.252590 -0.398325
2.800000 6.520242 120.433862 -0.000000 0.352339 0.395561 -0.161168 3.461710 131.631518 -0.000000 0.058115 0.254859 -0.398242
2.805000 -3.126860 136.553467 -0.000000 0.353637 0.392378 -0.160987 9.654146 133.425751 -0.000000 0.056914 0.257865 -0.398149
2.810000 -15.149150 156.654713 -0.000000 0.355335 0.388490 -0.160836 18.838140 132.537851 -0.000000 0.055327 0.261662 -0.398111
2.815000 -29.141867 181.468428 -0.000000 0.357323 0.383956 -0.160441 30.434329 128.308867 -0.000000 0.053503 0.266235 -0.398021
2.820000 -44.706533 211.295311 -0.000000 0.359389 0.379039 -0.160268 42.974707 120.689378 -0.000000 0.051693 0.270949 -0.397920
2.825000 -61.104708 245.782276 -0.000000 0.361279 0.374231 -0.160258 54.797236 110.416295 -0.000000 0.050177 0.275652 -0.397902
2.830000 -77.742491 283.881399 -0.000000 0.362439 0.369832 -0.160149 64.315895 98.877551 -0.000000 0.049242 0.279921 -0.397768
2.835000 -92.652395 324.650705 -0.000000 0.362946 0.365355 -0.159936 70.992468 87.157745 -0.000000 0.048843 0.284203 -0.397683
2.840000 -105.102162 367.054391 -0.000000 0.363071 0.360837 -0.159683 74.533158 76.027986 -0.000000 0.048890 0.288351 -0.397658
2.845000 -114.824519 410.406895 -0.000000 0.363042 0.356311 -0.159616 75.323034 65.503224 -0.000000 0.049170 0.292481 -0.397720
2.850000 -121.491089 454.454796 -0.000000 0.363001 0.351643 -0.159558 74.161966 54.910860 -0.000000 0.049605 0.296997 -0.397759
2.855000 -126.366756 498.666640 -0.000000 0.362928 0.346955 -0.159532 71.656279 43.590066 -0.000000 0.050103 0.301513 -0.397842
2.860000 -130.006653 542.659500 -0.000000 0.362846 0.342240 -0.159481 68.295652 30.886372 -0.000000 0.050798 0.306084 -0.397969
2.865000 -132.727300 585.971437 -0.000000 0.362747 0.337453 -0.159475 64.258107 16.478112 -0.000000 0.051723 0.310671 -0.398073
2.870000 -134.564418 628.092462 -0.000000 0.362608 0.332690 -0.159478 59.552588 0.356972 -0.000000 0.052787 0.315353 -0.398159
2.875000 -135.761464 668.409249 -0.000000 0.362394 0.328057 -0.159486 54.194766 -17.221738 -0.000000 0.053876 0.320031 -0.398485
2.880000 -135.991373 706.438392 -0.000000 0.362034 0.323476 -0.159466 48.261028 -35.869973 -0.000000 0.055074 0.324679 -0.398537
2.885000 -134.839640 741.794047 -0.000000 0.361520 0.318879 -0.159398 41.848028 -55.052296 -0.000000 0.056294 0.329330 -0.398595
2.890000 -132.423021 774.123428 -0.000000 0.361217 0.314231 -0.159247 35.125688 -74.130982 -0.000000 0.057788 0.333905 -0.398831
2.895000 -129.334842 803.120106 -0.000000 0.361137 0.309665 -0.159295 28.367579 -92.461017 -0.000000 0.059135 0.338412 -0.399049
2.900000 -126.099836 828.562281 -0.000000 0.360819 0.305287 -0.159095 21.895419 -109.465581 -0.000000 0.060469 0.342754 -0.399324
2.905000 -121.502558 850.493682 -0.000000 0.360621 0.300844 -0.158879 15.842972 -124.705323 -0.000000 0.061713 0.347170 -0.399511
2.910000 -115.770442 868.754228 -0.000000 0.360314 0.296409 -0.158750 10.549406 -137.796489 -0.000000 0.062989 0.351557 -0.399764
2.915000 -109.303865 883.287269 -0.000000 0.359818 0.292098 -0.159054 6.352493 -148.443878 -0.000000 0.064211 0.355873 -0.399926
2.920000 -101.593082 894.287103 -0.000000 0.359358 0.287789 -0.158966 3.286270 -156.430800 -0.000000 0.065467 0.360220 -0.400147
2.925000 -93.382743 901.874695 -0.000000 0.359308 0.283540 -0.159055 1.416667 -161.632679 -0.000000 0.066645 0.364609 -0.400290
2.930000 -84.434945 906.319104 -0.000000 0.358871 0.279392 -0.158781 0.538457 -164.063639 -0.000000 0.067876 0.368991 -0.400363
2.935000 -73.966041 907.946300 -0.000000 0.357720 0.275325 -0.158865 0.335991 -163.878783 -0.000000 0.069112 0.373594 -0.400468
